<svg width="19" height="19" viewBox="0 0 19 19" fill="none" xmlns="http://www.w3.org/2000/svg">
<path d="M13.0205 18.3611H17.241C17.5381 18.3611 17.823 18.2431 18.033 18.033C18.2431 17.823 18.3611 17.5381 18.3611 17.241V2.12014C18.3611 1.82306 18.2431 1.53815 18.033 1.32808C17.823 1.11801 17.5381 1 17.241 1H2.12014C1.82306 1 1.53815 1.11801 1.32808 1.32808C1.11801 1.53815 1 1.82306 1 2.12014V17.241C1 17.5381 1.11801 17.823 1.32808 18.033C1.53815 18.2431 1.82306 18.3611 2.12014 18.3611H10.2715" fill="#3D5A98"/>
<path d="M13.0205 18.3611H17.241C17.5381 18.3611 17.823 18.2431 18.033 18.033C18.2431 17.823 18.3611 17.5381 18.3611 17.241V2.12014C18.3611 1.82306 18.2431 1.53815 18.033 1.32808C17.823 1.11801 17.5381 1 17.241 1H2.12014C1.82306 1 1.53815 1.11801 1.32808 1.32808C1.11801 1.53815 1 1.82306 1 2.12014V17.241C1 17.5381 1.11801 17.823 1.32808 18.033C1.53815 18.2431 1.82306 18.3611 2.12014 18.3611H10.2715" stroke="black" stroke-width="0.694444" stroke-miterlimit="10"/>
<path d="M13.0201 18.3611V11.4889H15.4941L15.7691 8.73991H13.0201V7.09061C13.0201 5.99095 13.8448 5.99095 14.1198 5.99095H15.7691V3.51734C14.658 3.40484 10.2712 2.41804 10.2712 7.09095V8.74026H8.0722V11.4892H10.2712V18.3611" fill="white"/>
<path d="M13.0201 18.3611V11.4889H15.4941L15.7691 8.73991H13.0201V7.09061C13.0201 5.99095 13.8448 5.99095 14.1198 5.99095H15.7691V3.51734C14.658 3.40484 10.2712 2.41804 10.2712 7.09095V8.74026H8.0722V11.4892H10.2712V18.3611" stroke="black" stroke-width="0.694444" stroke-miterlimit="10" stroke-linecap="round" stroke-linejoin="round"/>
</svg>
