<?xml version="1.0" standalone="no"?>
<!DOCTYPE svg PUBLIC "-//W3C//DTD SVG 20010904//EN"
 "http://www.w3.org/TR/2001/REC-SVG-20010904/DTD/svg10.dtd">
<svg version="1.0" xmlns="http://www.w3.org/2000/svg"
 width="1920.000000pt" height="1080.000000pt" viewBox="0 0 1920.000000 1080.000000"
 preserveAspectRatio="xMidYMid meet">

<g transform="translate(0.000000,1080.000000) scale(0.100000,-0.100000)"
fill="#000000" stroke="none">
<path d="M9235 10056 c-99 -31 -175 -89 -222 -167 -24 -41 -55 -142 -128 -419
-108 -406 -114 -450 -75 -553 25 -67 113 -168 172 -198 31 -16 714 -204 1202
-331 153 -39 287 -8 385 90 27 27 59 68 70 90 11 22 64 202 116 399 74 278 96
373 96 423 0 137 -79 268 -199 329 -65 33 -1271 351 -1328 350 -27 0 -67 -6
-89 -13z m450 -109 c154 -42 426 -114 605 -162 212 -56 337 -94 361 -109 57
-39 95 -82 128 -148 51 -102 47 -143 -59 -543 -50 -187 -102 -363 -115 -391
-51 -104 -153 -172 -269 -181 -62 -4 -92 1 -246 42 -96 25 -362 96 -590 156
-228 61 -440 120 -470 132 -115 45 -192 157 -198 287 -4 69 3 104 82 400 48
179 94 345 103 370 51 141 189 236 328 226 33 -2 186 -38 340 -79z"/>
<path d="M9620 9398 c-48 -33 -69 -66 -76 -120 -25 -181 230 -250 302 -81 33
78 2 168 -71 203 -55 27 -113 26 -155 -2z m160 -43 c11 -10 25 -35 32 -56 9
-32 8 -46 -6 -83 -21 -55 -52 -76 -109 -76 -113 0 -155 140 -65 215 28 23 39
27 80 23 27 -3 57 -13 68 -23z"/>
<path d="M9947 9373 c-13 -12 -7 -41 10 -47 9 -4 23 0 31 8 13 12 13 18 2 30
-13 17 -32 21 -43 9z"/>
<path d="M10036 9215 c-31 -124 -30 -115 -8 -115 15 0 24 20 45 95 32 113 33
125 8 125 -15 0 -23 -18 -45 -105z"/>
<path d="M9925 9278 c-2 -7 -16 -60 -31 -117 -22 -86 -24 -105 -13 -112 8 -5
17 -9 20 -9 3 0 20 53 37 117 24 89 28 119 19 125 -17 11 -27 10 -32 -4z"/>
<path d="M9987 9047 c-8 -21 8 -39 29 -35 27 5 25 42 -2 46 -12 2 -24 -3 -27
-11z"/>
<path d="M5633 9857 c-12 -7 -108 -91 -214 -187 -1769 -1604 -1625 -1471
-1640 -1519 -23 -76 -17 -84 448 -595 379 -416 437 -476 473 -487 68 -21 102
-3 246 128 71 64 172 155 224 202 52 47 100 90 105 95 6 6 80 74 165 151 85
77 260 236 389 353 l233 212 62 -34 c236 -132 401 -215 408 -208 5 5 -31 117
-82 256 -74 202 -89 251 -79 263 7 8 69 65 137 126 68 61 130 123 138 138 23
46 18 117 -12 156 -66 87 -849 939 -873 950 -34 16 -100 16 -128 0z m165 -64
c27 -27 194 -210 373 -408 178 -197 354 -392 391 -432 74 -80 90 -121 68 -174
-7 -17 -76 -88 -157 -161 -78 -71 -143 -133 -143 -137 0 -4 38 -110 84 -236
47 -126 83 -231 81 -233 -2 -2 -101 48 -221 112 l-217 116 -26 -23 c-14 -13
-78 -70 -141 -128 -63 -57 -328 -298 -589 -534 -260 -237 -485 -438 -500 -447
-36 -25 -92 -23 -129 5 -25 17 -392 418 -804 876 -80 89 -88 145 -30 206 39
41 83 82 512 470 206 187 395 358 420 381 183 168 831 754 854 772 21 16 42
22 77 22 45 0 53 -4 97 -47z"/>
<path d="M5343 9185 c-48 -21 -75 -70 -70 -125 7 -60 68 -120 123 -120 73 0
141 73 128 138 -6 27 -8 29 -25 19 -11 -7 -19 -21 -18 -32 2 -35 -1 -44 -23
-65 -24 -22 -77 -27 -95 -9 -9 9 6 29 60 79 66 62 70 69 57 85 -16 19 -70 45
-92 45 -7 -1 -28 -7 -45 -15z m89 -44 c5 -4 -17 -31 -47 -61 -46 -45 -57 -52
-65 -40 -34 53 19 128 80 114 14 -3 28 -9 32 -13z"/>
<path d="M5110 9086 c-11 -15 -9 -22 23 -54 21 -21 37 -40 37 -44 0 -3 -14 -8
-31 -12 -17 -3 -44 -19 -60 -35 -73 -74 -5 -211 106 -211 47 0 105 53 105 95
0 24 2 26 16 15 12 -11 18 -10 31 3 15 15 11 21 -49 84 -35 37 -87 92 -114
122 -45 48 -51 51 -64 37z m109 -152 c54 -38 59 -113 9 -148 -57 -40 -138 11
-138 87 0 13 11 36 25 51 28 30 69 34 104 10z"/>
<path d="M6106 9031 c-3 -5 -3 -16 0 -25 5 -12 0 -16 -20 -16 -34 0 -93 -53
-101 -91 -8 -37 25 -110 61 -134 75 -49 184 -6 184 73 0 21 2 23 16 12 12 -11
18 -11 31 2 14 15 8 24 -63 100 -78 83 -97 97 -108 79z m65 -100 c48 -48 37
-119 -21 -139 -61 -22 -120 23 -120 90 0 75 85 105 141 49z"/>
<path d="M5854 8796 c-35 -16 -64 -51 -64 -79 0 -15 -3 -17 -14 -8 -10 9 -16
8 -26 -4 -10 -12 -1 -28 59 -94 93 -103 95 -105 111 -86 10 12 3 25 -44 76
-62 69 -71 104 -36 139 36 36 68 26 136 -41 55 -55 84 -68 84 -38 0 19 -105
122 -137 135 -38 16 -31 16 -69 0z"/>
<path d="M4871 8746 c-8 -10 -3 -34 24 -101 20 -48 33 -90 30 -93 -3 -4 -44
13 -92 37 -77 38 -88 41 -101 27 -14 -14 -4 -21 102 -72 106 -51 120 -61 132
-93 35 -87 34 -85 49 -70 13 12 6 39 -53 197 -37 100 -70 182 -73 182 -4 0
-12 -6 -18 -14z"/>
<path d="M5604 8695 c-9 -21 3 -45 21 -45 21 0 30 27 15 45 -16 19 -29 19 -36
0z"/>
<path d="M5670 8625 c-10 -12 0 -28 59 -94 93 -103 95 -105 111 -86 10 12 -1
29 -70 105 -46 49 -84 90 -85 90 -1 0 -8 -7 -15 -15z"/>
<path d="M5510 8565 c-11 -13 -9 -19 9 -39 15 -16 19 -26 11 -31 -8 -5 -8 -11
1 -21 9 -11 15 -12 23 -4 7 7 28 -8 71 -55 68 -73 96 -81 134 -41 29 30 19 53
-12 31 -12 -8 -27 -15 -33 -15 -6 0 -35 27 -64 61 l-52 60 21 23 c16 17 18 25
9 34 -9 9 -17 7 -35 -10 l-23 -21 -23 22 c-22 19 -25 20 -37 6z"/>
<path d="M4633 8526 c-63 -28 -91 -113 -58 -176 40 -76 143 -94 203 -34 40 40
45 102 14 161 -26 48 -106 72 -159 49z m78 -36 c6 0 21 -12 34 -26 52 -56 19
-144 -53 -144 -75 0 -122 99 -69 147 26 24 47 33 65 27 8 -2 18 -4 23 -4z"/>
<path d="M5424 8401 c-17 -11 -36 -33 -42 -51 -7 -17 -15 -29 -20 -26 -5 3
-17 0 -26 -7 -15 -11 -8 -22 65 -100 44 -48 87 -87 94 -87 32 0 23 25 -29 79
-72 77 -80 105 -37 143 42 38 61 32 133 -43 58 -59 72 -68 83 -49 8 14 -90
127 -126 145 -37 20 -58 19 -95 -4z"/>
<path d="M4369 8373 c-57 -35 -74 -101 -38 -147 26 -33 65 -34 139 -1 47 20
58 22 75 11 30 -20 30 -52 0 -82 -21 -21 -32 -25 -59 -20 -23 5 -37 2 -46 -9
-10 -12 -8 -16 13 -26 62 -28 144 24 154 98 4 32 1 43 -22 66 -34 34 -52 34
-125 1 -68 -30 -91 -29 -104 8 -8 23 -6 32 14 53 17 18 33 25 51 23 33 -3 67
21 47 33 -21 14 -71 10 -99 -8z"/>
<path d="M5189 8181 c-31 -31 -39 -46 -39 -76 0 -73 61 -135 132 -135 70 0
133 69 121 133 -9 46 -41 25 -41 -27 1 -38 -33 -66 -78 -66 -55 0 -51 19 19
87 71 69 74 84 26 108 -52 27 -97 20 -140 -24z m118 -9 c9 -6 -3 -24 -41 -61
-58 -57 -76 -59 -76 -9 0 58 70 100 117 70z"/>
<path d="M5044 8045 c-3 -8 -3 -18 0 -24 3 -5 -7 -12 -23 -16 -105 -23 -129
-141 -45 -215 28 -24 44 -30 80 -30 39 0 51 5 80 34 22 22 34 44 34 62 l0 27
24 -23 c30 -27 41 -71 26 -99 -15 -28 -65 -53 -93 -46 -15 4 -28 1 -36 -9 -11
-13 -9 -17 15 -26 38 -15 79 -4 119 32 39 34 52 79 35 122 -11 31 -186 226
-201 226 -5 0 -12 -7 -15 -15z m29 -74 c67 -26 88 -101 42 -146 -34 -35 -78
-33 -116 4 -46 46 -38 110 16 139 25 14 28 14 58 3z"/>
<path d="M4829 7836 c-7 -19 -17 -32 -23 -30 -6 2 -18 0 -26 -6 -16 -10 -15
-11 94 -127 35 -37 64 -59 72 -56 24 9 16 24 -41 84 -58 60 -67 88 -40 123 11
14 12 23 4 33 -18 20 -27 16 -40 -21z"/>
<path d="M4580 7705 c-10 -12 -1 -42 50 -165 35 -83 68 -149 74 -147 12 4 13
53 2 78 -5 12 7 28 44 59 47 40 52 42 80 30 30 -12 60 -8 60 8 0 10 -270 152
-288 152 -5 0 -15 -7 -22 -15z m120 -76 c33 -16 60 -34 60 -39 0 -8 -72 -72
-76 -67 -12 13 -60 137 -54 137 5 0 37 -14 70 -31z"/>
<path d="M12710 9687 c-96 -34 -154 -72 -211 -136 -105 -118 -147 -267 -116
-421 9 -45 28 -107 42 -136 l26 -54 -31 -45 c-53 -77 -72 -147 -68 -247 4 -75
9 -96 41 -161 55 -112 140 -180 260 -211 l52 -13 6 -79 c7 -88 30 -150 84
-224 67 -92 204 -160 320 -160 l53 0 3 -82 c3 -67 10 -95 33 -143 40 -81 119
-158 203 -198 62 -29 77 -32 163 -32 82 1 102 4 143 25 l47 25 63 -60 c116
-111 241 -160 391 -153 145 7 239 63 292 176 15 32 27 58 28 59 1 2 27 -7 57
-18 85 -33 228 -37 316 -10 128 38 227 128 274 248 34 85 33 222 -2 319 -31
84 -80 161 -144 226 l-47 46 12 55 c37 180 -102 412 -309 515 -46 23 -88 42
-95 42 -7 0 -11 34 -11 108 0 100 -2 112 -32 175 -67 142 -208 247 -360 268
-68 9 -101 5 -228 -27 -16 -4 -24 5 -44 52 -47 108 -169 212 -290 248 -113 33
-263 10 -342 -53 -21 -17 -41 -31 -45 -31 -4 0 -35 18 -69 40 -94 61 -162 82
-290 87 -97 3 -118 1 -175 -20z m1715 -437 c10 -11 16 -20 13 -20 -3 0 -13 9
-23 20 -10 11 -16 20 -13 20 3 0 13 -9 23 -20z"/>
<path d="M12118 8253 c-84 -54 -41 -195 89 -298 118 -92 259 -113 310 -46 7 9
12 36 13 61 0 86 -96 207 -211 265 -69 36 -162 44 -201 18z"/>
<path d="M11825 8068 c-28 -16 -35 -28 -35 -64 0 -61 87 -155 169 -183 103
-34 163 21 122 114 -45 102 -184 174 -256 133z"/>
<path d="M9124 7844 c-7 -3 -76 -83 -155 -179 -78 -96 -145 -175 -148 -175 -3
0 -42 68 -85 151 -85 162 -110 199 -131 199 -23 0 -88 -107 -190 -309 l-27
-55 -35 40 c-98 111 -287 294 -304 294 -27 0 -33 -18 -69 -195 -17 -88 -35
-163 -39 -167 -3 -4 -69 62 -145 147 -76 85 -146 155 -155 155 -31 0 -41 -22
-41 -94 0 -116 -13 -296 -20 -296 -4 0 -105 52 -225 115 -211 111 -227 119
-252 116 -26 -2 -21 -46 27 -244 27 -113 50 -210 50 -215 0 -6 -8 -9 -17 -7
-10 2 -116 21 -236 41 -201 34 -219 36 -234 21 -12 -12 -14 -22 -7 -36 5 -11
94 -87 198 -170 143 -115 183 -151 165 -152 -13 0 -105 -28 -204 -63 -239 -83
-237 -73 -34 -232 84 -66 161 -127 173 -136 19 -15 19 -19 6 -31 -8 -8 -79
-71 -157 -141 -79 -70 -143 -131 -143 -136 0 -39 4 -40 238 -40 l226 0 -55
-48 c-29 -27 -122 -103 -205 -169 -171 -137 -199 -166 -183 -194 5 -10 19 -19
30 -19 11 0 120 25 243 55 122 30 228 55 234 55 12 0 -56 -107 -225 -353 -100
-146 -111 -179 -63 -185 19 -2 59 21 150 86 194 138 414 288 434 295 16 6 17
5 6 -8 -7 -8 -9 -15 -5 -15 4 0 2 -6 -4 -13 -6 -8 -9 -16 -6 -18 2 -3 -16 -81
-40 -174 -62 -242 -50 -248 155 -84 76 61 142 111 147 111 4 1 13 -9 19 -22 8
-15 13 -18 16 -8 10 27 19 -3 30 -98 10 -98 19 -124 43 -124 6 0 55 34 107 75
53 41 103 75 112 75 9 0 15 3 15 8 -3 19 2 23 15 13 11 -9 16 -9 22 0 4 8 3 9
-4 5 -18 -11 -14 0 6 15 9 7 14 10 10 5 -9 -10 20 -41 30 -32 3 4 2 10 -3 14
-26 19 3 79 32 67 8 -2 12 -1 9 4 -3 5 0 14 8 20 11 9 31 -18 103 -141 50 -84
100 -172 113 -195 13 -23 31 -44 41 -46 23 -6 55 31 64 73 4 17 11 30 16 30 6
0 7 5 4 10 -3 6 -1 10 5 10 7 0 9 8 5 21 -5 14 -4 19 4 15 7 -5 10 2 9 17 -3
37 32 109 50 102 10 -4 12 0 8 11 -4 10 1 25 10 35 10 11 12 19 6 19 -7 0 -12
-4 -12 -10 0 -5 -5 -10 -11 -10 -8 0 -8 4 1 15 6 8 9 19 5 25 -10 16 5 12 33
-11 89 -69 209 -149 224 -149 24 0 45 35 53 90 4 25 9 52 10 60 1 8 5 40 9 70
4 30 12 62 17 70 8 11 9 8 6 -15 -3 -16 -9 -39 -12 -50 -5 -15 -4 -16 3 -6 9
12 11 12 15 0 2 -8 3 -7 2 3 -2 9 1 35 5 57 6 33 4 44 -9 52 -14 9 -14 10 1 5
19 -6 120 -78 352 -254 139 -105 150 -111 170 -98 13 9 20 24 19 38 -1 14 -43
123 -93 244 -86 204 -150 363 -150 372 0 2 7 1 16 -2 14 -5 15 -4 4 9 -7 8
-16 12 -21 9 -5 -3 -9 0 -9 5 0 13 27 15 34 2 3 -5 16 -9 28 -9 24 0 114 -19
452 -97 210 -48 226 -48 226 -1 0 16 -34 52 -117 123 -156 134 -263 235 -239
227 13 -5 17 -4 12 4 -4 8 94 11 354 12 198 0 367 3 375 6 18 7 20 48 3 61 -7
5 -51 21 -98 35 -452 139 -520 162 -521 177 0 10 -2 12 -6 4 -3 -10 -10 -10
-26 -1 -12 6 -23 11 -24 10 -2 -1 -9 -2 -15 -2 -7 0 -4 6 6 12 15 8 21 8 24 0
2 -7 8 -12 14 -12 6 0 8 6 5 14 -7 18 15 27 34 14 11 -7 9 -8 -6 -3 -18 6 -19
5 -4 -10 9 -9 23 -13 32 -9 15 5 14 8 -6 26 -12 11 -17 17 -10 14 6 -4 13 -3
15 1 6 15 78 42 94 36 12 -4 15 -3 10 5 -5 8 -1 10 10 5 10 -4 15 -2 11 4 -7
12 141 75 156 66 5 -3 7 -2 4 4 -4 6 41 32 104 61 60 29 112 59 116 68 11 29
-12 48 -78 62 -35 7 -136 29 -224 49 -88 20 -172 38 -187 41 -16 2 -28 6 -28
8 0 3 16 21 35 40 20 19 32 40 29 46 -5 8 -1 9 10 5 10 -4 15 -3 11 3 -10 15
-25 12 -32 -7 -9 -24 -69 -83 -77 -76 -4 4 6 18 21 32 16 14 33 37 40 51 6 14
52 77 102 140 50 63 91 122 91 131 0 39 -23 42 -177 20 -81 -12 -174 -23 -205
-25 -32 -3 -62 -7 -66 -10 -11 -7 15 77 84 270 30 84 54 161 54 172 0 32 -35
37 -78 11 -20 -13 -89 -57 -152 -99 -141 -93 -240 -153 -245 -148 -2 2 -26 93
-54 202 -51 203 -61 225 -97 210z m-218 -700 c5 -21 11 -25 38 -22 23 2 32 -1
34 -14 3 -13 -3 -18 -22 -18 -14 0 -27 -4 -30 -8 -2 -4 3 -44 12 -87 l18 -80
32 1 c26 2 32 -2 32 -18 0 -17 -6 -19 -47 -16 l-48 3 -16 65 c-10 36 -20 77
-23 93 -4 15 -13 27 -20 27 -8 0 -16 7 -20 15 -3 9 1 15 11 15 12 0 14 7 10
35 -5 30 -3 35 13 35 13 0 22 -9 26 -26z m320 -1 c25 -16 49 -66 41 -86 -3 -9
-42 -21 -96 -32 -50 -10 -91 -20 -91 -24 1 -15 29 -41 53 -50 35 -14 81 3 95
34 14 30 53 35 45 6 -9 -34 -59 -72 -100 -78 -90 -12 -158 74 -133 168 12 43
26 56 77 74 40 14 75 11 109 -12z m-626 -7 c0 -19 -69 -78 -82 -70 -5 4 6 23
28 45 40 41 54 48 54 25z m70 -113 c17 -16 34 -42 39 -60 l9 -31 -90 -19 c-98
-19 -116 -34 -79 -65 37 -29 77 -23 117 17 19 19 39 35 44 35 21 0 9 -33 -24
-66 -30 -30 -40 -34 -85 -34 -42 0 -56 5 -82 28 -27 24 -33 37 -37 84 -5 64 6
91 51 118 47 29 100 26 137 -7z m-266 -30 c17 -60 45 -216 41 -224 -9 -13 -32
-11 -38 4 -4 8 -8 9 -14 1 -15 -20 -51 -34 -88 -34 -64 0 -87 39 -111 191 -6
36 -5 41 12 37 14 -2 23 -22 37 -86 23 -100 44 -121 102 -102 46 15 52 42 33
142 -14 74 -12 84 14 87 4 1 9 -7 12 -16z m-284 -49 c0 -3 16 -82 35 -175 19
-94 35 -172 35 -175 0 -2 -9 -4 -19 -4 -16 0 -22 11 -31 58 -19 97 -19 96 -41
68 -27 -35 -83 -49 -123 -32 -122 52 -100 241 27 240 23 0 50 -3 60 -8 12 -6
17 -4 17 7 0 8 6 18 13 20 17 8 27 8 27 1z m-442 -169 c45 -75 82 -140 82
-145 0 -22 -37 -8 -53 20 -10 17 -21 30 -25 30 -4 -1 -34 -6 -67 -13 -57 -12
-60 -14 -68 -49 -7 -31 -32 -56 -44 -45 -2 2 8 75 22 162 23 149 32 174 60
175 6 0 48 -61 93 -135z m-298 -5 c0 -10 -6 -20 -12 -23 -21 -7 -38 4 -38 23
0 10 6 20 13 23 20 7 37 -4 37 -23z m12 -95 c4 -16 6 -29 5 -29 -1 -1 -20 -10
-41 -21 -45 -23 -59 -52 -42 -86 23 -48 116 -29 116 23 0 13 6 18 18 16 12 -2
16 -11 14 -28 -8 -55 -76 -90 -136 -70 -37 12 -56 44 -56 95 0 34 29 67 71 80
11 4 17 11 13 16 -9 15 4 41 18 37 7 -3 15 -17 20 -33z m1939 -91 c45 -48 25
-133 -37 -148 -17 -5 -24 -13 -24 -31 0 -28 -24 -34 -34 -9 -13 34 -5 49 34
66 47 20 61 55 36 93 -28 43 -106 23 -106 -27 0 -11 -7 -18 -20 -18 -32 0 -26
44 11 74 43 36 106 36 140 0z m-223 -111 l27 -28 -24 -3 c-13 -2 -26 0 -30 5
-22 34 -91 18 -91 -21 0 -26 16 -36 60 -36 35 0 82 -17 92 -33 16 -26 8 -66
-18 -86 -47 -37 -154 -20 -154 25 0 18 27 18 46 -1 29 -29 94 -11 94 26 0 22
-35 39 -83 39 -45 0 -77 25 -77 59 0 74 103 109 158 54z m-212 -123 c28 -129
28 -127 4 -133 -15 -4 -20 0 -20 16 -1 19 -2 20 -13 7 -44 -56 -124 -67 -170
-24 -35 32 -47 63 -47 116 0 34 6 46 37 75 32 30 41 34 77 31 23 -3 50 -8 60
-13 15 -7 18 -5 13 7 -7 19 2 30 22 26 10 -2 22 -37 37 -108z m-606 60 c0 -27
-19 -35 -38 -17 -12 13 -13 19 -3 31 16 19 41 10 41 -14z m-81 -166 c26 -127
30 -158 19 -165 -19 -13 -28 -11 -28 6 0 8 -4 15 -10 15 -5 0 -10 -4 -10 -8 0
-14 -58 -42 -89 -42 -47 0 -81 20 -102 62 -24 48 -24 94 1 136 30 50 91 64
154 37 15 -7 18 -5 14 7 -4 8 -10 36 -13 62 -7 41 -5 46 12 46 17 0 24 -20 52
-156z m370 112 c21 -22 23 -26 8 -31 -9 -4 -26 0 -39 9 -79 55 -160 -33 -113
-123 16 -32 33 -41 76 -41 27 0 69 29 69 49 0 10 31 24 38 17 9 -10 -20 -65
-43 -80 -34 -22 -96 -29 -125 -14 -62 33 -89 128 -53 189 35 60 133 73 182 25z
m-253 -126 c28 -131 28 -130 4 -130 -11 0 -20 2 -20 5 0 8 -40 197 -47 218 -4
15 0 18 18 15 20 -3 25 -14 45 -108z m964 90 c0 -24 -29 -38 -40 -20 -12 19
-1 40 21 40 12 0 19 -7 19 -20z m-1685 -52 c3 -13 18 -87 34 -165 27 -137 27
-143 9 -143 -10 0 -21 6 -24 14 -4 11 -11 8 -29 -10 -48 -48 -129 -44 -168 9
-46 61 -41 147 10 187 29 23 111 28 131 8 15 -15 16 9 2 67 -6 28 -6 42 3 47
19 12 26 9 32 -14z m285 -46 c32 -24 50 -80 29 -92 -7 -5 -45 -14 -84 -21 -96
-17 -100 -19 -75 -52 32 -40 91 -38 122 3 25 35 59 41 51 10 -8 -29 -58 -68
-97 -76 -95 -17 -174 97 -129 186 34 67 122 87 183 42z m-75 -842 c2 -23 2
-22 -19 -14 -19 7 -22 25 -3 22 6 -2 11 4 9 12 -2 8 0 12 4 7 4 -4 8 -16 9
-27z"/>
<path d="M9103 7110 c-21 -19 -39 -58 -30 -66 4 -5 148 24 155 31 2 2 -7 15
-21 29 -31 31 -75 34 -104 6z"/>
<path d="M8575 7013 c-31 -8 -55 -34 -55 -60 0 -27 9 -28 92 -11 60 13 70 24
41 50 -22 19 -52 27 -78 21z"/>
<path d="M7978 6884 c-46 -25 -55 -95 -18 -144 23 -31 88 -34 118 -7 45 41 26
137 -30 156 -38 13 -37 14 -70 -5z"/>
<path d="M7577 6819 c-3 -19 -9 -56 -13 -82 l-6 -48 38 7 c79 14 78 12 30 88
l-43 69 -6 -34z"/>
<path d="M8734 6398 c-44 -21 -56 -84 -25 -134 48 -79 162 -30 148 64 -11 64
-68 97 -123 70z"/>
<path d="M8053 6258 c-47 -23 -55 -115 -12 -154 32 -29 87 -24 116 11 21 24
24 36 20 69 -9 68 -66 102 -124 74z"/>
<path d="M7468 6130 c-32 -24 -40 -65 -23 -107 15 -36 42 -53 82 -53 56 1 89
52 72 114 -17 63 -81 86 -131 46z"/>
<path d="M7767 6199 c-19 -11 -40 -56 -32 -69 4 -7 144 17 154 26 3 2 -6 15
-19 29 -25 27 -70 33 -103 14z"/>
<path d="M3594 7331 c-348 -120 -1316 -843 -1865 -1391 -187 -186 -292 -312
-346 -415 -67 -128 -55 -267 41 -470 174 -366 588 -811 896 -963 86 -42 102
-46 165 -46 59 0 82 6 145 35 41 20 105 54 141 76 l67 40 66 -73 c196 -216
418 -284 697 -214 142 36 344 147 429 234 31 33 33 37 18 52 -15 15 -24 14
-120 -9 -213 -53 -451 -60 -572 -18 -74 26 -144 79 -196 149 -22 30 -40 58
-40 62 0 5 30 30 68 56 131 93 439 329 592 454 657 538 1018 896 1061 1053 52
191 -126 572 -436 935 -257 301 -525 483 -709 482 -12 0 -58 -13 -102 -29z
m65 -495 c10 -12 5 -15 -29 -21 -33 -6 -41 -12 -46 -33 -10 -39 -14 -44 -28
-32 -20 16 2 88 28 93 43 9 64 7 75 -7z m125 -67 l35 -31 -42 -36 c-24 -20
-58 -50 -76 -65 -39 -32 -32 -50 20 -50 38 0 83 45 76 74 -5 19 25 54 36 42 4
-3 7 -23 7 -44 0 -50 -47 -106 -97 -115 -84 -16 -151 40 -163 137 -4 27 -4 47
-2 44 2 -2 16 10 30 26 49 59 122 66 176 18z m-255 -150 c17 -6 31 -14 31 -18
0 -18 -25 -28 -59 -24 -33 5 -41 1 -64 -26 -22 -27 -24 -35 -16 -63 11 -40 55
-78 90 -78 26 0 68 32 70 53 1 7 0 20 -1 30 -2 24 32 51 42 34 26 -40 -9 -124
-61 -152 -58 -29 -124 -9 -165 51 -47 70 -26 151 49 185 48 22 44 22 84 8z
m-188 -194 c86 -45 92 -187 9 -230 -66 -34 -153 -6 -184 59 -19 40 -20 64 -5
103 27 71 112 103 180 68z m752 -95 c34 -27 45 -81 23 -115 -9 -14 -14 -31
-10 -37 4 -7 3 -8 -4 -4 -16 9 -15 -7 0 -22 10 -9 9 -16 -4 -28 -14 -14 -18
-13 -42 12 -31 34 -32 39 -8 56 47 33 48 84 2 108 -26 14 -33 13 -59 -11 -18
-17 -22 -28 -16 -55 3 -19 4 -34 1 -34 -2 0 -11 -3 -20 -6 -11 -4 -19 2 -26
21 -14 36 -3 70 32 105 36 37 92 41 131 10z m-958 -157 c56 -170 44 -180 -119
-91 -64 35 -116 66 -116 70 0 4 9 12 19 18 16 8 36 1 107 -40 48 -27 88 -50
90 -50 2 0 -12 43 -31 97 -33 91 -34 97 -18 115 21 23 20 25 68 -119z m1006
-6 c-10 -9 -11 -8 -5 6 3 10 9 15 12 12 3 -3 0 -11 -7 -18z m-186 -58 c28 -34
63 -76 79 -95 27 -32 28 -37 13 -51 -13 -13 -19 -14 -31 -3 -13 10 -16 10 -16
-3 0 -52 -53 -97 -115 -97 -69 0 -125 52 -132 124 -6 65 38 123 98 128 17 1
25 7 22 15 -5 13 14 44 26 42 3 0 29 -27 56 -60z m204 -16 c15 -27 -4 -54 -32
-44 -23 9 -29 28 -14 49 13 17 34 15 46 -5z m-1329 -98 c127 -66 86 -245 -57
-245 -81 0 -148 90 -123 165 26 78 111 116 180 80z m866 -68 c12 -7 40 -34 64
-62 23 -27 49 -55 57 -62 13 -10 14 -15 3 -28 -20 -25 -32 -18 -88 50 -43 53
-59 65 -82 65 -32 0 -70 -33 -70 -61 0 -9 25 -49 55 -88 30 -39 55 -75 55 -80
0 -5 -8 -12 -17 -15 -13 -5 -29 6 -60 41 -23 26 -42 51 -43 55 0 4 -13 14 -30
23 -35 18 -72 6 -89 -31 -14 -32 -7 -49 55 -120 51 -59 53 -62 35 -78 -17 -15
-22 -11 -100 78 -57 66 -79 99 -75 111 4 10 14 15 25 12 13 -3 21 3 28 23 12
37 52 62 96 62 31 0 35 3 35 27 1 65 88 112 146 78z m-1092 -126 c10 -9 41
-42 69 -74 47 -55 49 -59 33 -75 -16 -16 -19 -15 -42 13 -13 17 -29 29 -35 27
-6 -1 -8 2 -5 6 8 14 -62 82 -84 82 -11 0 -31 -12 -45 -26 -20 -20 -25 -32
-20 -52 7 -30 54 -88 67 -84 5 1 7 -2 4 -6 -3 -5 3 -17 14 -27 23 -21 25 -36
8 -53 -10 -10 -26 3 -78 58 -69 74 -97 85 -132 53 -34 -30 -23 -72 37 -142 43
-51 52 -67 43 -78 -18 -22 -30 -13 -93 62 -32 39 -67 80 -77 91 -17 20 -18 23
-3 37 8 9 22 14 30 11 9 -4 15 0 15 9 0 31 44 68 88 74 35 5 42 9 42 27 0 73
107 117 164 67z m792 -232 c70 -83 75 -92 61 -106 -13 -13 -19 -14 -31 -3 -14
11 -16 9 -16 -10 0 -12 -15 -37 -34 -56 -29 -29 -41 -34 -79 -34 -73 0 -137
67 -137 144 0 48 54 106 100 106 26 0 31 3 26 16 -7 18 11 47 25 39 4 -3 43
-46 85 -96z m-1116 -84 c62 -59 64 -133 5 -192 -29 -29 -39 -33 -86 -33 -49 0
-55 3 -94 44 -41 42 -42 44 -35 94 7 53 35 95 75 113 37 16 104 3 135 -26z
m827 -58 c21 -12 133 -135 133 -146 0 -4 -9 -12 -19 -18 -17 -11 -24 -7 -57
33 -51 63 -86 94 -105 94 -27 0 -69 -40 -69 -65 0 -27 81 -131 98 -128 7 2 9
-4 5 -14 -5 -12 -3 -14 8 -8 8 4 4 -3 -8 -15 -27 -29 -24 -32 -149 117 -91
107 -96 115 -80 131 16 16 19 14 55 -25 l37 -42 12 33 c20 53 90 80 139 53z
m-1118 -66 c12 -8 13 -12 1 -26 -10 -12 -23 -15 -49 -10 -26 4 -45 0 -68 -14
-75 -46 -78 -128 -7 -190 50 -45 104 -43 150 3 26 26 34 43 34 68 0 41 33 81
44 53 10 -27 7 -63 -9 -100 -30 -73 -120 -118 -189 -95 -144 47 -170 214 -47
297 36 24 112 31 140 14z m900 -112 c17 -6 31 -15 31 -20 0 -14 -37 -29 -54
-23 -29 11 -63 -5 -78 -37 -19 -38 -14 -61 22 -99 51 -55 130 -31 130 38 0 26
6 41 19 49 24 15 31 8 31 -36 0 -48 -18 -81 -60 -109 -106 -72 -245 62 -185
178 16 30 39 47 84 61 14 4 26 8 27 8 1 1 15 -4 33 -10z m-308 -259 c19 -6 46
-21 59 -35 l24 -25 -35 -30 c-19 -17 -53 -44 -76 -62 -33 -24 -40 -34 -32 -45
30 -35 119 7 119 56 0 30 11 51 26 51 10 0 14 -13 14 -47 0 -41 -4 -50 -40
-85 -46 -43 -80 -48 -136 -22 -42 20 -73 62 -81 108 -8 48 29 110 76 130 44
18 39 18 82 6z m-202 -179 c8 -5 11 -16 7 -26 -5 -13 -14 -16 -35 -12 -34 7
-71 -16 -71 -44 0 -30 21 -32 79 -9 63 24 79 25 103 3 28 -25 23 -77 -11 -115
-24 -27 -35 -32 -77 -32 -43 -1 -49 2 -49 19 0 16 7 20 39 21 61 2 102 64 48
72 -11 2 -34 -4 -51 -12 -102 -53 -176 31 -97 110 35 35 83 45 115 25z"/>
<path d="M3670 6747 c-32 -16 -53 -58 -42 -87 8 -21 10 -20 66 26 53 44 56 49
40 61 -22 16 -32 16 -64 0z"/>
<path d="M3231 6374 c-42 -35 -42 -79 0 -122 40 -41 72 -41 111 -2 25 25 29
36 24 61 -6 32 -29 60 -63 78 -31 16 -38 14 -72 -15z"/>
<path d="M3845 6068 c-53 -29 -60 -81 -17 -130 38 -41 85 -43 119 -4 33 38 29
72 -11 112 -35 35 -57 41 -91 22z"/>
<path d="M2750 5963 c-32 -12 -60 -47 -60 -76 0 -32 56 -97 85 -97 21 0 57 19
72 39 40 53 -35 156 -97 134z"/>
<path d="M3254 5568 c-24 -11 -44 -48 -44 -78 0 -11 13 -34 28 -52 38 -41 85
-43 119 -4 33 38 29 72 -11 112 -35 35 -56 40 -92 22z"/>
<path d="M2163 5470 c-33 -13 -56 -55 -49 -86 10 -38 59 -84 91 -84 58 0 95
78 59 128 -12 18 -65 54 -76 51 -2 0 -13 -4 -25 -9z"/>
<path d="M2496 4929 c-21 -16 -26 -28 -24 -52 2 -17 8 -32 13 -33 6 -2 33 17
60 41 41 37 47 47 35 55 -24 16 -55 12 -84 -11z"/>
<path d="M10036 6545 c-11 -8 -28 -15 -37 -15 -17 0 -20 -23 -4 -37 4 -4 5 -2
1 5 -5 8 5 18 31 29 21 9 42 16 46 15 5 -2 6 2 2 8 -8 13 -16 12 -39 -5z"/>
<path d="M10018 6503 c7 -3 16 -2 19 1 4 3 -2 6 -13 5 -11 0 -14 -3 -6 -6z"/>
<path d="M9900 6490 c-8 -5 -12 -12 -9 -15 4 -3 12 1 19 10 14 17 11 19 -10 5z"/>
<path d="M9945 6490 c-3 -5 -2 -10 4 -10 5 0 13 5 16 10 3 6 2 10 -4 10 -5 0
-13 -4 -16 -10z"/>
<path d="M11600 6314 c-92 -24 -196 -108 -237 -189 -6 -11 -57 -193 -113 -405
-93 -349 -102 -390 -97 -446 8 -79 44 -160 98 -219 53 -58 104 -87 194 -114
145 -42 1129 -302 1178 -311 144 -28 327 69 388 205 32 72 209 756 209 809 0
118 -64 242 -161 308 -50 35 -102 51 -691 208 -351 93 -654 170 -675 169 -21
0 -63 -7 -93 -15z m417 -622 c10 -6 9 -20 -2 -62 -8 -30 -15 -60 -15 -66 0
-10 109 -44 140 -44 5 0 17 27 27 60 12 45 21 60 35 60 10 0 18 -6 18 -12 0
-13 -71 -290 -76 -296 -1 -2 -11 -1 -22 2 -20 7 -20 7 -1 73 10 37 17 68 15
70 -3 3 -142 43 -150 43 -2 0 -6 -14 -10 -32 -18 -89 -26 -106 -46 -101 -11 3
-20 8 -20 11 0 3 14 57 31 121 50 192 49 190 76 173z m318 -77 c0 -13 -8 -21
-22 -23 -19 -3 -23 1 -23 23 0 22 4 26 23 23 14 -2 22 -10 22 -23z m104 -34
c12 -8 10 -25 -13 -108 -30 -105 -40 -123 -56 -107 -7 7 -6 32 5 80 35 152 35
153 64 135z m-129 -48 c0 -10 -13 -65 -29 -123 -24 -90 -31 -104 -47 -102 -11
2 -20 5 -21 6 -1 1 12 55 29 119 25 96 35 117 50 117 11 0 18 -7 18 -17z m74
-220 c4 -9 0 -23 -9 -32 -13 -14 -17 -14 -31 1 -9 9 -14 24 -11 32 8 21 43 20
51 -1z"/>
<path d="M5590 5677 c-30 -12 -154 -84 -275 -158 -913 -562 -880 -540 -931
-626 -54 -93 -66 -227 -28 -319 26 -61 397 -657 436 -700 100 -109 296 -144
427 -76 107 56 1054 649 1100 689 38 33 63 66 85 112 28 60 31 75 31 166 0 86
-4 106 -24 145 -58 111 -389 639 -424 678 -22 23 -69 56 -105 74 -54 27 -78
32 -151 35 -73 3 -95 0 -141 -20z m236 -38 c104 -32 148 -84 341 -399 238
-390 228 -368 228 -475 0 -164 -50 -230 -275 -368 -74 -46 -306 -188 -514
-316 -208 -129 -397 -242 -420 -252 -123 -54 -275 -21 -373 82 -39 42 -400
628 -420 684 -39 106 -6 253 76 337 40 41 373 252 1035 658 117 71 206 85 322
49z"/>
<path d="M5788 5176 c-16 -12 -12 -21 45 -108 36 -55 67 -93 75 -91 6 3 12 9
12 15 0 11 -99 186 -109 192 -3 3 -14 -1 -23 -8z"/>
<path d="M5714 5045 c-3 -8 -3 -19 1 -26 5 -8 1 -9 -13 -5 -28 9 -84 -16 -111
-50 -18 -23 -22 -38 -19 -75 12 -117 138 -171 211 -89 15 16 27 38 27 47 0 15
2 14 14 -3 14 -17 16 -18 31 -3 15 14 11 24 -47 117 -61 98 -82 118 -94 87z
m19 -76 c47 -21 63 -103 27 -139 -45 -45 -103 -32 -136 31 -38 74 33 143 109
108z"/>
<path d="M5416 4967 c-17 -12 -11 -24 70 -155 48 -78 90 -142 94 -142 4 0 12
6 18 13 9 10 -9 47 -74 153 -48 76 -87 140 -88 141 -2 2 -10 -3 -20 -10z"/>
<path d="M5924 4946 c-9 -24 4 -48 23 -44 12 2 18 12 18 28 0 29 -32 41 -41
16z"/>
<path d="M5289 4793 c-37 -22 -59 -64 -59 -110 0 -95 97 -161 178 -119 89 46
102 149 26 215 -40 36 -101 42 -145 14z m116 -46 c17 -14 28 -36 32 -63 5 -36
2 -43 -27 -67 -42 -36 -65 -34 -106 7 -42 42 -46 85 -9 121 31 32 75 32 110 2z"/>
<path d="M5083 4743 c-19 -7 -16 -17 17 -71 17 -27 30 -53 30 -58 0 -5 -12
-16 -28 -25 -15 -9 -43 -26 -64 -38 l-36 -22 -34 55 c-33 55 -54 69 -64 42 -7
-18 144 -266 162 -266 27 0 25 23 -8 78 l-35 57 66 42 66 42 38 -60 c33 -52
40 -58 57 -49 18 10 15 17 -47 118 -37 59 -74 119 -82 134 -17 29 -18 30 -38
21z"/>
<path d="M4827 4507 c-8 -21 8 -39 29 -35 27 5 25 42 -2 46 -12 2 -24 -3 -27
-11z"/>
<path d="M4882 4437 c-15 -17 93 -199 115 -195 9 2 18 8 20 14 3 10 -111 194
-121 194 -2 0 -8 -6 -14 -13z"/>
<path d="M7477 5483 c-4 -3 -7 -11 -7 -17 0 -6 5 -5 12 2 6 6 9 14 7 17 -3 3
-9 2 -12 -2z"/>
<path d="M8991 5384 c0 -11 3 -14 6 -6 3 7 2 16 -1 19 -3 4 -6 -2 -5 -13z"/>
<path d="M8243 5379 c3 -9 1 -21 -4 -26 -6 -6 -5 -14 4 -21 11 -10 13 -6 12
18 -1 17 -5 33 -10 38 -4 4 -6 0 -2 -9z"/>
<path d="M8991 5353 c-1 -6 -4 -20 -7 -30 -5 -17 -5 -17 6 0 6 10 9 23 6 30
-3 9 -5 9 -5 0z"/>
<path d="M8196 5335 c-3 -8 -1 -15 3 -15 5 0 11 7 15 15 3 8 1 15 -3 15 -5 0
-11 -7 -15 -15z"/>
<path d="M8621 5236 c-8 -13 -10 -33 -6 -46 4 -14 2 -25 -5 -30 -7 -5 -9 -13
-5 -21 11 -17 28 27 20 52 -4 10 -1 28 5 39 7 12 10 24 7 26 -2 2 -9 -7 -16
-20z"/>
<path d="M15384 4285 c-3 -8 -3 -19 1 -25 4 -6 -4 -10 -20 -10 -66 0 -123 -70
-111 -136 13 -69 85 -122 149 -110 36 7 81 47 92 84 5 18 10 21 20 12 15 -12
35 -6 35 11 0 13 -142 189 -152 189 -5 0 -11 -7 -14 -15z m37 -75 c24 -13 49
-61 49 -95 0 -35 -42 -75 -79 -75 -38 0 -88 41 -96 80 -15 70 61 124 126 90z"/>
<path d="M15092 4167 c-8 -9 -2 -24 24 -57 l36 -45 -40 -8 c-81 -16 -121 -92
-86 -164 56 -114 190 -107 228 11 5 13 10 15 19 8 14 -12 42 0 36 15 -7 16
-194 252 -200 253 -4 0 -11 -6 -17 -13z m94 -155 c49 -39 58 -99 19 -137 -36
-37 -79 -33 -121 9 -41 41 -43 73 -8 115 30 36 76 41 110 13z"/>
<path d="M9859 4021 c-518 -72 -963 -307 -1212 -641 -72 -97 -141 -242 -168
-356 -28 -118 -23 -311 11 -419 28 -89 89 -207 103 -198 6 3 7 1 3 -6 -14 -22
110 -169 209 -248 197 -159 455 -267 765 -320 123 -21 498 -24 617 -4 l81 13
75 -65 c157 -137 310 -238 521 -343 197 -98 219 -98 148 -1 -21 29 -47 66 -57
84 -10 18 -23 29 -28 26 -6 -3 -7 -1 -3 5 3 6 -7 33 -23 61 -82 138 -174 372
-150 380 31 10 208 106 269 145 432 281 637 730 510 1116 -30 88 -60 151 -71
144 -5 -3 -6 1 -4 8 7 17 -93 161 -105 153 -6 -3 -7 0 -4 8 6 17 -93 110 -108
101 -6 -4 -8 -3 -5 3 17 28 -324 236 -355 217 -6 -4 -8 -3 -5 3 7 11 -110 56
-225 87 -215 60 -552 80 -789 47z m646 -49 c148 -29 338 -93 459 -154 169 -87
331 -223 414 -345 19 -29 39 -50 45 -46 5 3 7 2 4 -4 -3 -5 7 -36 23 -69 63
-131 75 -186 75 -349 -1 -144 -2 -154 -34 -249 -98 -286 -355 -549 -693 -710
-54 -26 -98 -48 -98 -50 0 -2 11 -37 25 -79 47 -144 132 -317 222 -450 14 -20
24 -40 21 -42 -7 -8 -175 77 -293 148 -55 33 -139 91 -187 128 -49 38 -89 69
-91 69 -2 0 -30 25 -62 55 -35 32 -66 53 -75 50 -35 -11 -164 -24 -290 -30
-461 -23 -915 120 -1194 376 -71 65 -160 179 -196 249 -12 25 -25 47 -29 50
-3 3 -7 12 -8 20 -1 8 -12 47 -24 85 -19 59 -22 94 -23 215 0 138 2 149 33
240 39 114 81 191 159 297 104 139 283 288 462 382 50 26 87 51 83 56 -5 4 -3
5 4 1 7 -4 29 2 50 12 106 54 353 124 538 153 169 26 520 21 680 -9z"/>
<path d="M10504 3404 l7 -26 -27 21 c-36 28 -102 28 -137 1 -81 -64 -31 -220
69 -220 38 0 73 15 90 38 9 13 12 12 17 -7 3 -11 13 -21 22 -21 15 0 17 7 11
60 -3 33 -9 87 -12 120 -6 51 -10 60 -26 60 -17 0 -19 -5 -14 -26z m-48 -14
c38 -13 54 -40 56 -91 2 -62 -36 -94 -110 -90 -28 1 -62 54 -62 96 0 36 23 73
54 85 28 12 29 12 62 0z"/>
<path d="M9385 3378 c-31 -16 -45 -39 -45 -70 0 -44 36 -73 107 -87 63 -12 73
-21 73 -66 0 -45 -85 -63 -117 -25 -10 11 -23 20 -30 20 -22 0 -14 -28 15 -50
39 -31 116 -24 149 14 49 57 18 116 -71 136 -27 6 -57 15 -67 21 -23 12 -25
61 -3 79 22 19 70 16 93 -4 11 -10 28 -16 38 -14 16 3 15 7 -9 31 -21 21 -36
27 -70 27 -24 0 -52 -6 -63 -12z"/>
<path d="M10087 3300 c7 -107 -5 -130 -67 -130 -54 0 -69 23 -78 116 -6 65
-10 79 -25 82 -18 4 -18 -2 -12 -75 8 -84 24 -126 54 -143 32 -17 86 -12 115
11 21 17 26 18 26 5 0 -10 9 -16 21 -16 15 0 19 5 15 18 -2 9 -7 55 -11 102
-8 103 -12 120 -31 120 -11 0 -13 -16 -7 -90z"/>
<path d="M9693 3349 c-51 -15 -83 -61 -83 -121 0 -44 4 -54 35 -84 28 -27 43
-34 75 -34 56 0 87 15 110 52 61 100 -26 218 -137 187z m70 -31 c85 -45 63
-178 -29 -178 -49 0 -71 14 -84 55 -20 60 4 115 55 128 33 8 35 8 58 -5z"/>
<path d="M11061 2828 c-5 -18 -17 -62 -27 -98 -9 -36 -20 -68 -24 -73 -3 -4
-27 35 -53 88 -28 58 -53 95 -62 95 -24 0 -19 -16 41 -128 l57 -105 -17 -60
c-18 -63 -15 -80 9 -56 11 11 115 341 115 364 0 3 -6 5 -14 5 -8 0 -19 -15
-25 -32z"/>
<path d="M10250 2813 c0 -16 5 -68 10 -118 14 -115 9 -139 -30 -142 -21 -2
-35 5 -49 22 -24 31 -43 32 -39 3 2 -14 17 -31 41 -43 l37 -20 38 20 37 20 -1
97 c-2 127 -11 188 -30 188 -9 0 -14 -10 -14 -27z"/>
<path d="M9807 2810 c-20 -16 -27 -30 -27 -56 0 -24 -4 -34 -16 -34 -9 0 -14
-6 -11 -12 2 -7 10 -13 18 -13 11 0 16 -26 24 -105 8 -82 13 -105 25 -105 17
0 17 10 6 132 -8 80 -7 81 15 85 36 5 36 28 -1 28 -28 0 -31 3 -28 28 2 17 12
31 26 37 22 10 25 26 6 32 -6 2 -23 -6 -37 -17z"/>
<path d="M10726 2820 c-62 -19 -85 -70 -47 -104 11 -10 43 -23 72 -29 61 -14
82 -38 57 -63 -21 -22 -78 -21 -94 1 -7 9 -21 15 -31 13 -16 -3 -15 -7 9 -31
38 -38 107 -39 137 -1 12 15 21 37 21 50 0 26 -34 54 -66 54 -45 0 -84 21 -84
46 0 42 56 58 90 24 20 -20 50 -27 50 -12 0 13 -43 49 -65 55 -11 3 -33 1 -49
-3z"/>
<path d="M10429 2785 c-28 -15 -59 -70 -59 -104 0 -32 24 -83 50 -106 32 -29
105 -27 147 3 92 66 42 223 -70 222 -23 -1 -54 -7 -68 -15z m106 -21 c20 -8
45 -56 45 -88 0 -67 -46 -105 -107 -90 -92 23 -81 184 12 184 18 0 41 -3 50
-6z"/>
<path d="M9088 2723 c-44 -5 -43 7 -23 -168 8 -71 15 -133 15 -137 0 -5 7 -8
16 -8 13 0 15 11 13 67 l-4 68 55 7 c70 10 103 42 98 97 -2 22 -8 35 -15 34
-7 -2 -10 3 -7 10 11 29 -48 40 -148 30z m120 -36 c19 -22 23 -61 9 -80 -12
-17 -104 -43 -115 -33 -2 3 -6 32 -9 65 l-6 61 55 0 c32 0 60 -5 66 -13z"/>
<path d="M9565 2703 c-26 -7 -54 -32 -71 -65 -41 -80 17 -178 106 -178 71 0
120 51 120 125 0 88 -67 139 -155 118z m88 -43 c32 -26 44 -79 27 -121 -15
-36 -37 -49 -82 -49 -52 1 -71 22 -76 84 -4 48 -1 57 21 80 32 32 74 34 110 6z"/>
<path d="M9376 2664 c-25 -26 -26 -26 -26 -5 0 13 -6 21 -16 21 -14 0 -16 -11
-10 -87 10 -126 16 -153 33 -153 13 0 15 12 9 80 -9 97 -4 115 34 129 17 5 30
17 30 25 0 24 -24 19 -54 -10z"/>
<path d="M9930 2520 c0 -16 5 -21 23 -18 12 2 22 10 22 18 0 8 -10 16 -22 18
-18 3 -23 -2 -23 -18z"/>
<path d="M14902 3908 c-8 -8 -9 -15 -1 -25 9 -10 5 -13 -19 -13 -42 0 -99 -51
-108 -95 -13 -70 60 -155 132 -155 39 0 104 51 104 80 0 22 16 35 25 21 7 -12
35 -3 35 10 0 11 -141 189 -150 189 -3 0 -11 -5 -18 -12z m59 -99 c81 -86 -24
-201 -111 -121 -43 39 -49 80 -15 120 37 44 85 44 126 1z"/>
<path d="M14664 3715 c-3 -8 -3 -19 1 -25 4 -6 -6 -10 -24 -10 -41 0 -98 -51
-107 -96 -12 -66 60 -154 128 -154 44 0 85 29 107 74 l19 41 21 -35 c28 -46
26 -72 -6 -104 -21 -21 -35 -27 -63 -25 -48 4 -70 -9 -45 -28 37 -26 97 -10
142 39 32 34 38 76 16 118 -22 43 -163 220 -175 220 -5 0 -11 -7 -14 -15z m57
-96 c81 -86 -24 -201 -111 -121 -43 39 -49 80 -15 120 37 44 85 44 126 1z"/>
<path d="M14364 3595 c-4 -9 -2 -21 4 -27 15 -15 44 -1 40 19 -4 23 -36 29
-44 8z"/>
<path d="M14423 3529 c-9 -9 7 -35 64 -106 70 -86 91 -103 100 -77 3 9 -131
187 -145 192 -4 1 -13 -3 -19 -9z"/>
<path d="M14350 3471 c-5 -11 -10 -27 -10 -36 0 -11 -6 -14 -24 -9 -13 3 -26
1 -30 -4 -3 -5 29 -53 71 -106 67 -84 79 -95 91 -82 13 12 8 22 -37 77 -53 67
-63 100 -36 129 15 17 11 50 -6 50 -4 0 -13 -9 -19 -19z"/>
<path d="M4955 3453 c-95 -34 -143 -83 -234 -234 -131 -221 -355 -749 -437
-1034 -75 -260 -49 -471 76 -596 63 -63 -21 -28 865 -367 286 -110 686 -263
888 -341 399 -153 456 -171 562 -171 161 0 233 59 342 280 205 417 443 1071
443 1218 0 53 -30 183 -52 226 -49 97 -106 140 -323 249 -118 59 -475 215
-567 248 -21 7 -38 15 -38 19 0 3 205 63 455 134 274 77 456 134 459 142 10
27 -22 43 -72 38 -26 -3 -333 -36 -682 -74 l-635 -67 -435 170 c-482 188 -513
196 -615 160z m243 -542 c10 -6 8 -20 -12 -66 -14 -31 -26 -59 -26 -61 0 -5
96 -48 128 -58 16 -6 23 3 42 54 23 60 27 65 53 54 11 -4 2 -35 -46 -150 -56
-135 -79 -167 -93 -130 -3 7 7 39 21 71 14 32 24 59 23 61 -5 4 -131 54 -138
54 -4 0 -19 -27 -33 -60 -24 -55 -47 -74 -61 -51 -3 4 14 55 38 112 24 57 51
121 59 142 17 38 23 42 45 28z m347 -217 c81 -38 93 -150 23 -209 -39 -33 -71
-40 -117 -26 -76 22 -109 98 -78 174 29 67 103 94 172 61z m165 -82 c0 -11 -5
-56 -11 -101 -6 -45 -9 -84 -7 -87 3 -2 31 29 64 71 55 70 84 89 99 65 4 -6 1
-51 -5 -101 -7 -50 -10 -93 -7 -95 3 -3 31 29 63 70 56 73 76 88 89 66 7 -11
-144 -198 -160 -199 -33 -2 -37 15 -27 110 6 52 9 95 8 97 -2 1 -31 -31 -64
-72 -48 -58 -66 -73 -82 -69 -23 6 -23 4 -9 150 11 99 14 113 30 113 12 0 19
-7 19 -18z m539 -213 c18 -7 41 -25 52 -42 14 -24 19 -27 24 -15 7 16 45 14
45 -3 0 -6 -21 -58 -46 -118 -39 -94 -48 -108 -65 -104 -14 4 -18 11 -14 24 5
16 2 17 -28 12 -67 -10 -137 48 -137 115 0 49 42 115 85 132 28 12 47 12 84
-1z m224 -109 c-2 -12 6 -15 37 -12 29 3 40 0 40 -9 0 -25 -15 -34 -55 -34
-43 0 -45 -2 -90 -107 -18 -42 -29 -56 -40 -52 -22 9 -20 18 27 132 36 87 46
102 63 100 11 -2 19 -9 18 -18z m237 -85 c52 -27 77 -108 46 -150 -14 -19 -13
-20 -188 53 -4 2 -8 -9 -8 -25 0 -54 65 -97 109 -73 12 6 31 8 42 5 27 -9 10
-30 -36 -45 -28 -9 -41 -8 -77 8 -55 24 -69 42 -75 95 -12 108 92 181 187 132z
m-1449 -75 c17 -10 18 -19 13 -118 l-6 -107 74 79 c54 58 79 78 91 73 9 -3 17
-10 17 -14 0 -5 -60 -68 -134 -142 -114 -114 -137 -132 -156 -126 -21 7 -20 9
24 54 l46 47 0 132 c0 73 3 132 6 132 3 0 14 -5 25 -10z m365 -155 c35 -22 57
-79 49 -122 -9 -48 -61 -102 -105 -109 -73 -12 -150 49 -150 119 0 40 35 104
68 122 33 19 101 14 138 -10z m143 -146 c-16 -40 -29 -82 -29 -95 0 -53 78
-85 113 -46 8 9 28 47 43 85 20 48 33 67 46 67 25 0 23 -17 -11 -96 -16 -38
-36 -86 -45 -107 -14 -34 -18 -37 -36 -27 -11 6 -18 15 -15 21 4 5 -11 9 -35
9 -49 0 -84 21 -100 60 -13 32 -11 44 32 147 26 64 32 72 48 63 18 -10 17 -13
-11 -81z m388 -4 c49 -32 53 -103 8 -145 -19 -18 -33 -21 -69 -18 -37 2 -47 0
-52 -14 -6 -20 -13 -22 -32 -9 -12 7 -8 29 13 69 1 1 16 -3 34 -9 42 -15 75
-5 89 26 16 35 15 42 -8 65 -24 24 -63 26 -85 4 -16 -16 -45 -13 -45 5 0 5 12
19 27 31 32 25 77 23 120 -5z m-140 -259 c-8 -20 -43 -21 -51 -1 -3 8 2 22 11
30 14 15 18 15 31 1 8 -8 12 -22 9 -30z"/>
<path d="M5443 2655 c-27 -19 -46 -75 -37 -109 7 -28 49 -56 84 -56 36 0 80
53 80 95 0 68 -73 108 -127 70z"/>
<path d="M6159 2341 c-52 -53 -31 -149 34 -152 55 -3 82 16 96 68 13 45 0 78
-38 98 -42 21 -59 19 -92 -14z"/>
<path d="M6605 2167 l-28 -23 66 -28 c64 -28 87 -28 87 -1 0 22 -42 64 -71 70
-19 5 -34 0 -54 -18z"/>
<path d="M5500 1940 c-46 -46 -47 -105 -3 -140 36 -28 70 -25 104 9 40 40 41
100 3 130 -34 27 -78 27 -104 1z"/>
<path d="M14141 3304 c-17 -14 -34 -40 -39 -57 l-8 -30 -38 46 c-24 29 -43 44
-52 40 -22 -8 -15 -20 92 -153 77 -96 99 -118 110 -109 10 8 11 16 3 31 -8 15
-8 19 0 13 20 -12 70 6 101 37 24 23 30 38 30 71 0 110 -121 177 -199 111z
m130 -43 c52 -53 32 -134 -36 -147 -44 -8 -81 15 -101 61 -19 45 -18 48 12 84
35 42 84 43 125 2z"/>
<path d="M16014 3266 c-36 -36 -43 -70 -21 -101 18 -24 32 -3 28 41 -4 55 59
84 99 44 27 -27 25 -61 -5 -94 -30 -33 -31 -38 -5 -61 16 -14 23 -16 32 -7 9
9 9 15 1 23 -8 8 -4 21 14 48 18 26 23 44 19 66 -16 80 -101 102 -162 41z"/>
<path d="M15036 3212 c-3 -4 15 -33 39 -64 25 -30 49 -66 54 -80 12 -32 -6
-69 -42 -86 -36 -17 -59 -3 -119 72 -42 54 -61 66 -73 46 -7 -12 88 -135 115
-150 52 -28 131 3 144 56 5 20 10 23 20 15 10 -8 16 -8 25 3 10 12 -1 31 -59
105 -67 84 -91 104 -104 83z"/>
<path d="M13924 3130 c-40 -16 -74 -68 -74 -113 0 -97 87 -157 174 -119 70 32
96 114 56 179 -32 53 -99 76 -156 53z m110 -61 c70 -83 -23 -195 -107 -129
-73 57 -45 160 43 160 30 0 43 -6 64 -31z"/>
<path d="M15873 3070 c-35 -21 -63 -66 -63 -100 0 -37 32 -91 64 -111 65 -39
147 -13 180 56 24 50 10 101 -39 144 -43 37 -93 41 -142 11z m97 -25 c87 -45
67 -169 -27 -169 -27 0 -42 7 -64 32 -39 43 -38 84 0 123 33 33 50 35 91 14z"/>
<path d="M16167 3053 c-12 -12 -7 -41 7 -46 22 -9 41 19 26 38 -14 16 -23 19
-33 8z"/>
<path d="M13505 2984 c-24 -63 -11 -94 16 -35 21 47 24 67 10 75 -5 3 -16 -15
-26 -40z"/>
<path d="M15650 3005 c-10 -13 -7 -22 24 -59 20 -24 36 -47 36 -50 0 -3 -16
-6 -36 -6 -28 0 -44 -8 -70 -34 -41 -41 -45 -90 -14 -141 28 -46 62 -65 114
-65 54 0 106 42 106 86 0 26 1 26 19 10 16 -15 20 -15 31 -1 10 12 -3 34 -85
137 -54 68 -101 127 -105 131 -4 4 -13 1 -20 -8z m108 -169 c59 -57 25 -151
-54 -149 -30 1 -45 8 -66 32 -79 89 35 200 120 117z"/>
<path d="M14774 3000 c-41 -16 -74 -68 -74 -116 0 -36 6 -51 35 -83 20 -22 48
-41 65 -45 44 -8 106 19 130 59 63 102 -44 230 -156 185z m107 -59 c76 -76
-13 -196 -100 -135 -21 15 -51 69 -51 93 0 5 12 23 26 40 35 42 84 43 125 2z"/>
<path d="M13558 2926 l-66 -53 95 -119 c52 -65 97 -121 98 -122 7 -7 134 101
129 110 -9 15 -26 8 -70 -27 -23 -19 -44 -35 -46 -35 -3 0 -19 20 -36 43 l-31
44 44 33 c35 26 42 36 33 47 -9 11 -19 7 -53 -21 l-42 -35 -20 22 c-52 60 -52
56 2 103 34 29 47 46 40 53 -7 7 -32 -7 -77 -43z"/>
<path d="M15461 2746 c-8 -10 -9 -16 -1 -21 16 -10 12 -26 -7 -24 -37 3 -52
-2 -81 -26 -56 -47 -54 -123 4 -181 30 -29 41 -34 84 -34 41 0 53 5 79 31 19
18 31 41 31 56 0 25 1 25 19 9 16 -15 20 -15 31 -1 10 12 0 30 -64 110 -42 52
-78 95 -80 95 -2 0 -9 -6 -15 -14z m56 -101 c47 -53 38 -115 -19 -143 -22 -10
-33 -10 -61 2 -71 29 -88 97 -37 148 26 25 36 29 63 24 18 -3 42 -17 54 -31z"/>
<path d="M15221 2551 c-12 -8 -12 -12 -2 -25 12 -14 9 -16 -18 -16 -60 0 -111
-55 -111 -118 0 -41 38 -94 84 -116 32 -16 44 -17 76 -7 45 13 80 53 80 89 0
21 2 23 16 11 19 -16 44 -63 44 -84 0 -9 -13 -30 -30 -46 -24 -24 -37 -29 -69
-27 -49 2 -63 -9 -36 -29 37 -27 128 6 156 59 16 31 13 85 -7 116 -27 42 -157
202 -163 202 -3 0 -12 -4 -20 -9z m40 -81 c23 -13 49 -61 49 -90 0 -31 -53
-80 -85 -80 -38 0 -95 59 -95 98 0 45 34 82 76 82 20 0 44 -5 55 -10z"/>
<path d="M14927 2443 c-11 -10 -8 -41 4 -49 6 -3 18 1 27 9 13 13 13 19 2 31
-14 17 -23 20 -33 9z"/>
<path d="M14976 2361 c-3 -5 29 -52 71 -105 66 -83 79 -95 91 -82 12 12 4 26
-59 105 -68 86 -90 103 -103 82z"/>
<path d="M14899 2285 c-9 -23 -16 -31 -24 -25 -6 5 -17 5 -25 0 -13 -8 -4 -21
122 -183 14 -18 19 -19 32 -8 14 12 10 20 -34 76 -53 67 -63 104 -34 136 9 10
13 23 9 28 -13 21 -34 10 -46 -24z"/>
<path d="M14725 2157 c-38 -18 -56 -39 -64 -79 l-7 -31 -41 51 c-35 44 -43 50
-53 37 -8 -10 -9 -19 -3 -27 192 -247 186 -240 206 -232 13 5 14 10 6 25 -9
17 -6 19 25 19 25 0 45 9 66 28 98 86 -16 262 -135 209z m101 -61 c42 -42 46
-85 9 -121 -42 -43 -111 -31 -140 25 -22 43 -19 68 14 101 40 39 74 38 117 -5z"/>
<path d="M14502 1973 c-12 -3 -38 -19 -57 -37 -30 -28 -35 -40 -35 -77 0 -77
57 -139 128 -139 35 0 92 37 109 70 46 90 -43 201 -145 183z m61 -44 c57 -29
74 -95 36 -143 -47 -60 -153 -12 -153 70 0 62 62 101 117 73z"/>
</g>
</svg>
