<svg width="418" height="119" viewBox="0 0 418 119" fill="none" xmlns="http://www.w3.org/2000/svg">
<path d="M0.779531 65.1C1.85953 65.46 2.93953 65.64 4.01953 65.64C5.05953 65.64 6.15953 65.42 7.31953 64.98C8.47953 64.54 9.53953 63.84 10.4995 62.88C11.4595 61.96 12.2395 60.56 12.8395 58.68C13.4795 56.8 13.7995 54.58 13.7995 52.02V19.38C13.7595 18.34 13.3595 17.46 12.5995 16.74C11.8795 15.98 10.9995 15.6 9.95953 15.6H9.17953V15H22.3195V15.6H21.5395C20.4995 15.6 19.5995 15.96 18.8395 16.68C18.1195 17.4 17.7395 18.3 17.6995 19.38V52.2C17.6995 54.92 17.2795 57.3 16.4395 59.34C15.5995 61.38 14.5395 62.92 13.2595 63.96C10.8595 65.84 8.19953 66.78 5.27953 66.78C3.55953 66.78 1.97953 66.44 0.539531 65.76L0.779531 65.1ZM33.4997 20.22C37.7797 16.18 43.3197 14.16 50.1197 14.16C56.9597 14.16 62.5197 16.18 66.7997 20.22C71.0797 24.22 73.2197 29.48 73.2197 36C73.2197 42.52 71.0797 47.8 66.7997 51.84C62.5197 55.84 56.9597 57.84 50.1197 57.84C43.3197 57.84 37.7797 55.84 33.4997 51.84C29.2197 47.8 27.0797 42.52 27.0797 36C27.0797 29.48 29.2197 24.22 33.4997 20.22ZM36.7397 50.52C40.1397 54.2 44.5997 56.04 50.1197 56.04C55.6397 56.04 60.0797 54.2 63.4397 50.52C66.8397 46.84 68.5397 42 68.5397 36C68.5397 30 66.8397 25.16 63.4397 21.48C60.0797 17.8 55.6397 15.96 50.1197 15.96C44.5997 15.96 40.1397 17.8 36.7397 21.48C33.3797 25.16 31.6997 30 31.6997 36C31.6997 42 33.3797 46.84 36.7397 50.52ZM79.1991 54.54C79.0791 53.98 79.0191 52.9 79.0191 51.3C79.0191 49.7 79.3191 48 79.9191 46.2H80.4591C80.4191 46.64 80.3991 47.08 80.3991 47.52C80.3991 49.96 81.1391 52 82.6191 53.64C84.0991 55.24 86.0591 56.04 88.4991 56.04C91.0191 56.04 93.0791 55.28 94.6791 53.76C96.3191 52.24 97.1391 50.34 97.1391 48.06C97.1391 45.74 96.3591 43.86 94.7991 42.42L83.2791 31.74C81.1191 29.74 80.0391 27.32 80.0391 24.48C80.0391 21.64 80.9791 19.22 82.8591 17.22C84.7791 15.18 87.3591 14.16 90.5991 14.16C92.1191 14.16 93.8391 14.36 95.7591 14.76H98.0991V22.14H97.5591C97.5591 20.26 96.8991 18.76 95.5791 17.64C94.2991 16.52 92.6391 15.96 90.5991 15.96C88.5591 15.96 86.8391 16.64 85.4391 18C84.0791 19.36 83.3991 21.06 83.3991 23.1C83.3991 25.14 84.1991 26.9 85.7991 28.38L97.6191 39.3C99.6191 41.14 100.619 43.66 100.619 46.86C100.619 50.06 99.5991 52.7 97.5591 54.78C95.5191 56.82 92.7991 57.84 89.3991 57.84C87.6391 57.84 85.7591 57.56 83.7591 57C81.7991 56.48 80.2791 55.66 79.1991 54.54ZM144.454 15.6H143.614C142.414 15.6 141.274 15.94 140.194 16.62C139.154 17.26 138.274 18.08 137.554 19.08L125.734 38.28V52.62C125.734 53.66 126.094 54.56 126.814 55.32C127.574 56.04 128.494 56.4 129.574 56.4H130.294V57H117.214V56.4H117.994C119.034 56.4 119.914 56.04 120.634 55.32C121.394 54.6 121.794 53.72 121.834 52.68V38.22L110.374 19.08C109.774 18.12 108.914 17.3 107.794 16.62C106.714 15.94 105.574 15.6 104.374 15.6H103.534V15H118.294V15.6H117.514C116.634 15.6 115.954 16 115.474 16.8C115.234 17.24 115.114 17.68 115.114 18.12C115.114 18.52 115.214 18.92 115.414 19.32L124.414 36.12L134.014 19.26C134.214 18.86 134.314 18.46 134.314 18.06C134.314 17.66 134.174 17.24 133.894 16.8C133.414 16 132.734 15.6 131.854 15.6H131.134V15H144.454V15.6ZM182.682 15C189.082 15 194.262 16.94 198.222 20.82C202.222 24.66 204.222 29.72 204.222 36C204.222 42.28 202.222 47.36 198.222 51.24C194.262 55.08 189.082 57 182.682 57H162.342V56.4H163.122C164.162 56.4 165.042 56.04 165.762 55.32C166.522 54.56 166.922 53.66 166.962 52.62V19.02C166.962 18.06 166.562 17.26 165.762 16.62C165.002 15.94 164.122 15.6 163.122 15.6H162.402L162.342 15H182.682ZM170.862 16.8V55.2H182.682C186.042 55.2 189.002 54.4 191.562 52.8C194.162 51.2 196.162 48.96 197.562 46.08C199.002 43.16 199.722 39.8 199.722 36C199.722 30.24 198.142 25.6 194.982 22.08C191.862 18.56 187.762 16.8 182.682 16.8H170.862ZM216.547 20.22C220.827 16.18 226.367 14.16 233.167 14.16C240.007 14.16 245.567 16.18 249.847 20.22C254.127 24.22 256.267 29.48 256.267 36C256.267 42.52 254.127 47.8 249.847 51.84C245.567 55.84 240.007 57.84 233.167 57.84C226.367 57.84 220.827 55.84 216.547 51.84C212.267 47.8 210.127 42.52 210.127 36C210.127 29.48 212.267 24.22 216.547 20.22ZM219.787 50.52C223.187 54.2 227.647 56.04 233.167 56.04C238.687 56.04 243.127 54.2 246.487 50.52C249.887 46.84 251.587 42 251.587 36C251.587 30 249.887 25.16 246.487 21.48C243.127 17.8 238.687 15.96 233.167 15.96C227.647 15.96 223.187 17.8 219.787 21.48C216.427 25.16 214.747 30 214.747 36C214.747 42 216.427 46.84 219.787 50.52ZM320.086 3.24C321.446 2.32 323.066 1.6 324.946 1.08C326.826 0.559997 328.346 0.299997 329.506 0.299997C330.666 0.299997 331.406 0.299997 331.726 0.299997V0.899996C329.846 0.979998 328.086 1.36 326.446 2.04C324.806 2.68 323.446 3.44 322.366 4.32C321.326 5.16 320.306 6.3 319.306 7.74C318.306 9.14 317.526 10.34 316.966 11.34C316.446 12.34 315.826 13.62 315.106 15.18L298.426 51.66C296.946 54.9 296.206 56.96 296.206 57.84H295.666L278.806 19.38C278.246 18.1 277.466 17.16 276.466 16.56C275.506 15.92 274.526 15.6 273.526 15.6H273.046V15H286.546V15.6H286.006C284.806 15.6 284.006 16.16 283.606 17.28C283.526 17.52 283.486 17.8 283.486 18.12C283.486 18.44 283.586 18.84 283.786 19.32L296.326 50.76L311.206 15.18C313.566 9.62 316.526 5.64 320.086 3.24ZM353.284 56.4H353.764V57H340.264V56.4H340.804C341.644 56.4 342.264 56.14 342.664 55.62C343.104 55.06 343.324 54.54 343.324 54.06C343.324 53.58 343.244 53.1 343.084 52.62L339.244 42.42H323.044L319.024 52.68C318.864 53.16 318.784 53.64 318.784 54.12C318.784 54.56 318.984 55.06 319.384 55.62C319.824 56.14 320.464 56.4 321.304 56.4H321.844V57H309.784V56.4H310.324C311.324 56.4 312.304 56.08 313.264 55.44C314.224 54.8 315.004 53.86 315.604 52.62L329.164 20.34C330.644 17.1 331.384 15.04 331.384 14.16H331.924L348.004 52.62C348.564 53.86 349.324 54.8 350.284 55.44C351.244 56.08 352.244 56.4 353.284 56.4ZM323.764 40.62H338.524L331.324 21.36L323.764 40.62ZM357.419 56.4C358.459 56.4 359.339 56.04 360.059 55.32C360.819 54.56 361.219 53.66 361.259 52.62V19.38C361.219 18.34 360.819 17.46 360.059 16.74C359.339 15.98 358.459 15.6 357.419 15.6H356.639V15H369.779V15.6H368.999C367.559 15.6 366.459 16.22 365.699 17.46C365.339 18.06 365.159 18.7 365.159 19.38V55.14H373.739C376.699 55.14 378.959 54.48 380.519 53.16C382.079 51.84 383.379 49.88 384.419 47.28H385.019L381.539 57H356.639V56.4H357.419ZM390.232 56.4C391.272 56.4 392.152 56.04 392.872 55.32C393.632 54.56 394.032 53.66 394.072 52.62V19.02C394.072 18.06 393.692 17.26 392.932 16.62C392.172 15.94 391.272 15.6 390.232 15.6H389.512L389.452 15H407.032C408.272 15 409.612 14.88 411.052 14.64C412.532 14.4 413.572 14.16 414.172 13.92V21.48H413.572V20.4C413.572 19.44 413.232 18.62 412.552 17.94C411.912 17.26 411.132 16.9 410.212 16.86H397.972V35.4H408.112C408.912 35.36 409.592 35.06 410.152 34.5C410.712 33.94 410.992 33.24 410.992 32.4V31.56H411.592V41.04H410.992V40.14C410.992 39.34 410.712 38.66 410.152 38.1C409.632 37.54 408.972 37.24 408.172 37.2H397.972V55.14H406.552C409.512 55.14 411.772 54.48 413.332 53.16C414.892 51.84 416.192 49.88 417.232 47.28H417.832L414.352 57H389.452V56.4H390.232ZM123.429 118V81.08H127.069V118H123.429ZM133.424 104.532C133.424 101.967 133.944 99.6267 134.984 97.512C136.058 95.3627 137.532 93.6467 139.404 92.364C141.276 91.0813 143.408 90.44 145.8 90.44C148.053 90.44 150.064 91.0467 151.832 92.26C153.634 93.4387 155.038 94.8773 156.044 96.576V80.04H159.58V113.736C159.58 114.221 159.684 114.585 159.892 114.828C160.1 115.036 160.412 115.157 160.828 115.192V118C160.134 118.104 159.597 118.139 159.216 118.104C158.488 118.069 157.846 117.775 157.292 117.22C156.737 116.665 156.46 116.059 156.46 115.4V112.748C155.385 114.516 153.929 115.92 152.092 116.96C150.254 118 148.348 118.52 146.372 118.52C144.5 118.52 142.766 118.139 141.172 117.376C139.612 116.613 138.242 115.573 137.064 114.256C135.92 112.939 135.018 111.448 134.36 109.784C133.736 108.085 133.424 106.335 133.424 104.532ZM156.044 108.692V100.32C155.593 99.072 154.865 97.9453 153.86 96.94C152.854 95.9 151.71 95.0853 150.428 94.496C149.18 93.872 147.932 93.56 146.684 93.56C145.228 93.56 143.91 93.872 142.732 94.496C141.553 95.0853 140.53 95.9 139.664 96.94C138.832 97.98 138.19 99.1587 137.74 100.476C137.289 101.793 137.064 103.145 137.064 104.532C137.064 105.988 137.306 107.375 137.792 108.692C138.312 110.009 139.04 111.188 139.976 112.228C140.912 113.233 141.986 114.013 143.2 114.568C144.413 115.123 145.73 115.4 147.152 115.4C148.053 115.4 148.989 115.227 149.96 114.88C150.93 114.533 151.849 114.065 152.716 113.476C153.617 112.852 154.362 112.124 154.952 111.292C155.541 110.46 155.905 109.593 156.044 108.692ZM167.591 118V90.908H171.127V118H167.591ZM167.591 85.24V80.04H171.127V85.24H167.591ZM190.46 118.52C188.518 118.52 186.716 118.156 185.052 117.428C183.422 116.665 182.001 115.643 180.788 114.36C179.609 113.043 178.69 111.552 178.032 109.888C177.373 108.189 177.044 106.404 177.044 104.532C177.044 102.591 177.373 100.788 178.032 99.124C178.69 97.4253 179.626 95.9347 180.84 94.652C182.053 93.3347 183.474 92.312 185.104 91.584C186.768 90.8213 188.57 90.44 190.512 90.44C192.453 90.44 194.238 90.8213 195.868 91.584C197.497 92.312 198.918 93.3347 200.132 94.652C201.345 95.9347 202.281 97.4253 202.94 99.124C203.598 100.788 203.928 102.591 203.928 104.532C203.928 106.404 203.598 108.189 202.94 109.888C202.281 111.552 201.345 113.043 200.132 114.36C198.953 115.643 197.532 116.665 195.868 117.428C194.238 118.156 192.436 118.52 190.46 118.52ZM180.632 104.584C180.632 106.595 181.065 108.432 181.932 110.096C182.833 111.725 184.029 113.025 185.52 113.996C187.01 114.932 188.657 115.4 190.46 115.4C192.262 115.4 193.909 114.915 195.4 113.944C196.89 112.973 198.086 111.656 198.988 109.992C199.889 108.293 200.34 106.456 200.34 104.48C200.34 102.469 199.889 100.632 198.988 98.968C198.086 97.304 196.89 95.9867 195.4 95.016C193.909 94.0453 192.262 93.56 190.46 93.56C188.657 93.56 187.01 94.0627 185.52 95.068C184.064 96.0733 182.885 97.408 181.984 99.072C181.082 100.701 180.632 102.539 180.632 104.584ZM250.141 118H246.605V102.868C246.605 99.7133 246.103 97.3907 245.097 95.9C244.092 94.4093 242.601 93.664 240.625 93.664C238.58 93.664 236.743 94.392 235.113 95.848C233.519 97.304 232.392 99.176 231.733 101.464V118H228.197V102.868C228.197 99.6787 227.712 97.356 226.741 95.9C225.771 94.4093 224.28 93.664 222.269 93.664C220.259 93.664 218.439 94.3747 216.809 95.796C215.18 97.2173 214.036 99.0893 213.377 101.412V118H209.841V90.908H213.065V97.044C214.209 94.9293 215.665 93.3 217.433 92.156C219.236 91.012 221.229 90.44 223.413 90.44C225.667 90.44 227.487 91.0813 228.873 92.364C230.26 93.6467 231.109 95.328 231.421 97.408C232.669 95.12 234.16 93.3867 235.893 92.208C237.661 91.0293 239.655 90.44 241.873 90.44C243.399 90.44 244.681 90.7173 245.721 91.272C246.796 91.8267 247.645 92.624 248.269 93.664C248.928 94.6693 249.396 95.9 249.673 97.356C249.985 98.7773 250.141 100.372 250.141 102.14V118ZM255.443 110.2C255.443 108.501 255.928 107.045 256.899 105.832C257.869 104.584 259.204 103.631 260.903 102.972C262.636 102.279 264.629 101.932 266.883 101.932C268.2 101.932 269.569 102.036 270.991 102.244C272.412 102.452 273.677 102.764 274.787 103.18V100.892C274.787 98.604 274.111 96.784 272.759 95.432C271.407 94.08 269.535 93.404 267.143 93.404C265.687 93.404 264.248 93.6813 262.827 94.236C261.44 94.756 259.984 95.536 258.459 96.576L257.107 94.08C258.875 92.8667 260.608 91.9653 262.307 91.376C264.005 90.752 265.739 90.44 267.507 90.44C270.835 90.44 273.469 91.3933 275.411 93.3C277.352 95.2067 278.323 97.8413 278.323 101.204V113.736C278.323 114.221 278.427 114.585 278.635 114.828C278.843 115.036 279.172 115.157 279.623 115.192V118C279.241 118.035 278.912 118.069 278.635 118.104C278.357 118.139 278.149 118.139 278.011 118.104C277.144 118.069 276.485 117.792 276.035 117.272C275.584 116.752 275.341 116.197 275.307 115.608L275.255 113.632C274.041 115.192 272.464 116.405 270.523 117.272C268.581 118.104 266.605 118.52 264.595 118.52C262.861 118.52 261.284 118.156 259.863 117.428C258.476 116.665 257.384 115.66 256.587 114.412C255.824 113.129 255.443 111.725 255.443 110.2ZM273.591 112.28C273.972 111.795 274.267 111.327 274.475 110.876C274.683 110.425 274.787 110.027 274.787 109.68V105.728C273.608 105.277 272.377 104.931 271.095 104.688C269.847 104.445 268.581 104.324 267.299 104.324C264.768 104.324 262.723 104.827 261.163 105.832C259.603 106.837 258.823 108.207 258.823 109.94C258.823 110.945 259.083 111.899 259.603 112.8C260.123 113.667 260.885 114.395 261.891 114.984C262.896 115.539 264.075 115.816 265.427 115.816C267.125 115.816 268.703 115.487 270.159 114.828C271.649 114.169 272.793 113.32 273.591 112.28ZM294.855 118.52C292.636 118.52 290.573 118.156 288.667 117.428C286.76 116.7 285.113 115.591 283.727 114.1L285.183 111.604C286.708 113.025 288.233 114.065 289.759 114.724C291.319 115.348 292.965 115.66 294.699 115.66C296.813 115.66 298.529 115.244 299.847 114.412C301.164 113.545 301.823 112.315 301.823 110.72C301.823 109.645 301.493 108.831 300.835 108.276C300.211 107.687 299.292 107.219 298.079 106.872C296.9 106.491 295.479 106.092 293.815 105.676C291.943 105.156 290.365 104.619 289.083 104.064C287.835 103.475 286.881 102.747 286.223 101.88C285.599 100.979 285.287 99.8173 285.287 98.396C285.287 96.628 285.72 95.172 286.587 94.028C287.488 92.8493 288.701 91.9653 290.227 91.376C291.787 90.752 293.52 90.44 295.426 90.44C297.507 90.44 299.344 90.7693 300.939 91.428C302.533 92.0867 303.833 93.0053 304.839 94.184L303.123 96.576C302.152 95.4667 300.991 94.652 299.639 94.132C298.321 93.5773 296.848 93.3 295.219 93.3C294.109 93.3 293.052 93.456 292.047 93.768C291.041 94.0453 290.209 94.5307 289.551 95.224C288.927 95.8827 288.615 96.8013 288.615 97.98C288.615 98.9507 288.857 99.7133 289.343 100.268C289.828 100.788 290.556 101.239 291.527 101.62C292.497 101.967 293.693 102.348 295.115 102.764C297.16 103.319 298.945 103.891 300.471 104.48C301.996 105.035 303.175 105.763 304.007 106.664C304.839 107.565 305.255 108.831 305.255 110.46C305.255 112.991 304.301 114.967 302.395 116.388C300.488 117.809 297.975 118.52 294.855 118.52Z" fill="#E4BC7F"/>
</svg>
