<svg width="14" height="12" viewBox="0 0 14 12" fill="none" xmlns="http://www.w3.org/2000/svg">
<path fill-rule="evenodd" clip-rule="evenodd" d="M13.3 0.599976H0.7C0.580653 0.599976 0.466193 0.647386 0.381802 0.731778C0.297411 0.816169 0.25 0.930628 0.25 1.04998V10.95C0.25 11.0693 0.297411 11.1838 0.381802 11.2682C0.466193 11.3526 0.580653 11.4 0.7 11.4H13.3C13.4193 11.4 13.5338 11.3526 13.6182 11.2682C13.7026 11.1838 13.75 11.0693 13.75 10.95V1.04998C13.75 0.930628 13.7026 0.816169 13.6182 0.731778C13.5338 0.647386 13.4193 0.599976 13.3 0.599976ZM1.15 10.5V1.49998H12.85V10.5H1.15Z" fill="white"/>
<path fill-rule="evenodd" clip-rule="evenodd" d="M13.5916 1.39198L7.25109 6.79198C7.16948 6.86157 7.06569 6.89972 6.95843 6.89956C6.85117 6.89939 6.74749 6.86092 6.66609 6.79108L0.405693 1.39108C0.336003 1.33111 0.286353 1.25123 0.263425 1.1622C0.240496 1.07317 0.24539 0.979244 0.277446 0.893075C0.309502 0.806905 0.367183 0.732622 0.442727 0.680221C0.518272 0.62782 0.608054 0.599816 0.699993 0.599976H13.3C13.3919 0.600153 13.4816 0.628472 13.5569 0.681126C13.6322 0.733779 13.6897 0.808241 13.7214 0.894497C13.7532 0.980753 13.7578 1.07467 13.7345 1.1636C13.7113 1.25254 13.6614 1.33224 13.5916 1.39198ZM12.0778 1.49998H1.91049L6.96129 5.85688L12.0778 1.49998Z" fill="white"/>
</svg>
