<svg width="22" height="23" viewBox="0 0 22 23" fill="none" xmlns="http://www.w3.org/2000/svg">
<path d="M10.94 4.99609C7.3902 4.99609 4.50446 7.88184 4.49957 11.4316C4.49957 12.6475 4.84137 13.834 5.4859 14.8545L5.63727 15.0986L4.98785 17.4717L7.42438 16.832L7.65875 16.9736C8.64508 17.5596 9.77789 17.8721 10.9351 17.8721H10.94C14.4849 17.8721 17.4488 14.9863 17.4488 11.4365C17.4488 9.71777 16.7066 8.10156 15.4908 6.88574C14.2701 5.66504 12.6588 4.99609 10.94 4.99609ZM14.7242 14.1953C14.563 14.6494 13.7916 15.0596 13.4205 15.1133C12.8052 15.2061 12.3267 15.1572 11.1011 14.6299C9.16266 13.79 7.89313 11.8369 7.79547 11.71C7.69782 11.583 7.00446 10.6602 7.00446 9.70801C7.00446 8.75586 7.5025 8.28711 7.68317 8.0918C7.85895 7.89648 8.06891 7.84766 8.20074 7.84766C8.3277 7.84766 8.45953 7.84766 8.57184 7.85254C8.68903 7.85742 8.85016 7.80859 9.00641 8.18457C9.16754 8.57031 9.55328 9.52246 9.60211 9.62012C9.65094 9.71777 9.68512 9.83008 9.61676 9.95703C9.24567 10.6992 8.85016 10.6699 9.05035 11.0117C9.79742 12.2959 10.5445 12.7402 11.6822 13.3115C11.8775 13.4092 11.9898 13.3945 12.1021 13.2627C12.2144 13.1357 12.5855 12.6963 12.7125 12.5059C12.8394 12.3105 12.9713 12.3447 13.147 12.4082C13.3228 12.4717 14.275 12.9404 14.4703 13.0381C14.6656 13.1357 14.7925 13.1846 14.8414 13.2627C14.8853 13.3555 14.8853 13.7461 14.7242 14.1953ZM19.5338 0.5625H2.34625C1.05231 0.5625 0.00250244 1.6123 0.00250244 2.90625V20.0938C0.00250244 21.3877 1.05231 22.4375 2.34625 22.4375H19.5338C20.8277 22.4375 21.8775 21.3877 21.8775 20.0938V2.90625C21.8775 1.6123 20.8277 0.5625 19.5338 0.5625ZM10.9351 19.1758C9.63629 19.1758 8.36188 18.8486 7.23395 18.2334L3.1275 19.3125L4.22614 15.2988C3.54742 14.127 3.19098 12.7939 3.19098 11.4268C3.19586 7.15918 6.66754 3.6875 10.9351 3.6875C13.0054 3.6875 14.9488 4.49316 16.4136 5.95801C17.8736 7.42285 18.7525 9.36621 18.7525 11.4365C18.7525 15.7041 15.2027 19.1758 10.9351 19.1758Z" fill="#25D366"/>
</svg>
