<svg width="16" height="16" viewBox="0 0 16 16" fill="none" xmlns="http://www.w3.org/2000/svg">
<path d="M13.2875 2.68254C12.5999 1.98799 11.7809 1.4373 10.8782 1.06258C9.97555 0.68787 9.00731 0.49664 8.02998 0.500045C3.93498 0.500045 0.597476 3.83754 0.597476 7.93254C0.597476 9.24504 0.942476 10.52 1.58748 11.645L0.537476 15.5L4.47498 14.465C5.56248 15.0575 6.78498 15.3725 8.02998 15.3725C12.125 15.3725 15.4625 12.035 15.4625 7.94004C15.4625 5.95254 14.69 4.08504 13.2875 2.68254ZM8.02998 14.1125C6.91998 14.1125 5.83248 13.8125 4.87998 13.25L4.65498 13.115L2.31498 13.73L2.93748 11.45L2.78748 11.2175C2.17079 10.2328 1.84333 9.09448 1.84248 7.93254C1.84248 4.52754 4.61748 1.75254 8.02248 1.75254C9.67248 1.75254 11.225 2.39754 12.3875 3.56754C12.9631 4.14052 13.4193 4.82204 13.7295 5.57261C14.0398 6.32319 14.198 7.12788 14.195 7.94004C14.21 11.345 11.435 14.1125 8.02998 14.1125ZM11.42 9.49254C11.2325 9.40254 10.3175 8.95254 10.1525 8.88504C9.97998 8.82504 9.85998 8.79504 9.73248 8.97504C9.60498 9.16254 9.25248 9.58254 9.14748 9.70254C9.04248 9.83004 8.92998 9.84504 8.74248 9.74754C8.55498 9.65754 7.95498 9.45504 7.24998 8.82504C6.69498 8.33004 6.32748 7.72254 6.21498 7.53504C6.10998 7.34754 6.19998 7.25004 6.29748 7.15254C6.37998 7.07004 6.48498 6.93504 6.57498 6.83004C6.66498 6.72504 6.70248 6.64254 6.76248 6.52254C6.82248 6.39504 6.79248 6.29004 6.74748 6.20004C6.70248 6.11004 6.32748 5.19504 6.17748 4.82004C6.02748 4.46004 5.86998 4.50504 5.75748 4.49754H5.39748C5.26998 4.49754 5.07498 4.54254 4.90248 4.73004C4.73748 4.91754 4.25748 5.36754 4.25748 6.28254C4.25748 7.19754 4.92498 8.08254 5.01498 8.20254C5.10498 8.33004 6.32748 10.205 8.18748 11.0075C8.62998 11.2025 8.97498 11.315 9.24498 11.3975C9.68748 11.54 10.0925 11.5175 10.415 11.4725C10.775 11.42 11.5175 11.0225 11.6675 10.5875C11.825 10.1525 11.825 9.78504 11.7725 9.70254C11.72 9.62004 11.6075 9.58254 11.42 9.49254Z" fill="white"/>
</svg>
